<?xml version="1.0" standalone="no"?>
<!DOCTYPE svg PUBLIC "-//W3C//DTD SVG 20010904//EN"
 "http://www.w3.org/TR/2001/REC-SVG-20010904/DTD/svg10.dtd">
<svg version="1.0" xmlns="http://www.w3.org/2000/svg"
 width="710.000000pt" height="599.000000pt" viewBox="0 0 710.000000 599.000000"
 preserveAspectRatio="xMidYMid meet">
<metadata>
Created by potrace 1.16, written by Peter Selinger 2001-2019
</metadata>
<g transform="translate(0.000000,599.000000) scale(0.100000,-0.100000)"
fill="#000000" stroke="none">
<path d="M3323 5079 c-99 -29 -125 -203 -42 -274 24 -20 41 -25 83 -25 29 0
61 6 71 14 17 12 21 12 31 -2 6 -9 18 -13 28 -9 13 5 16 21 16 77 l0 70 -65 0
c-49 0 -65 -3 -65 -14 0 -18 20 -33 48 -38 l24 -3 -22 -27 c-28 -36 -72 -37
-105 -3 -20 19 -25 34 -25 77 0 29 6 64 13 78 25 49 107 52 129 5 8 -18 19
-25 41 -25 27 0 29 2 22 27 -9 37 -24 53 -62 70 -37 15 -73 15 -120 2z"/>
<path d="M3635 5071 c-61 -28 -81 -75 -76 -180 1 -24 11 -44 40 -72 37 -37 41
-39 104 -39 60 0 70 3 101 30 83 73 68 217 -27 261 -53 23 -91 24 -142 0z
m110 -37 c25 -10 45 -58 45 -108 0 -90 -75 -135 -137 -82 -25 22 -28 31 -28
84 0 50 4 65 24 86 24 26 61 33 96 20z"/>
<path d="M3415 4540 c-331 -3 -488 -9 -506 -17 -35 -15 -87 -77 -94 -111 -8
-38 -141 -486 -182 -615 -23 -70 -32 -117 -28 -135 9 -44 41 -89 83 -117 l38
-25 813 0 c806 -1 812 -1 849 20 45 25 78 72 87 121 7 38 8 35 -125 484 -38
127 -71 245 -75 263 -8 40 -55 96 -99 119 -37 20 -68 20 -761 13z m727 -137
c10 -9 18 -21 18 -27 -1 -9 134 -477 181 -632 14 -46 11 -80 -8 -95 -13 -12
-152 -15 -794 -17 l-778 -3 -17 26 c-22 33 -20 43 87 397 49 164 89 303 89
311 0 7 7 23 16 35 l15 22 586 0 c532 0 588 -2 605 -17z"/>
<path d="M3012 4201 c-8 -5 -12 -22 -10 -42 3 -33 5 -34 50 -37 l47 -3 3 -132
3 -132 45 -3 45 -3 -3 110 c-6 152 -3 159 56 163 46 3 47 4 50 39 3 35 2 36
-35 42 -56 10 -236 8 -251 -2z"/>
<path d="M3386 4153 c-8 -26 -24 -73 -36 -103 -30 -79 -60 -170 -60 -186 0
-10 13 -14 44 -14 42 0 45 2 56 35 11 33 14 35 56 35 42 0 46 -2 60 -35 13
-33 17 -35 60 -35 40 0 46 3 41 18 -3 9 -29 87 -59 172 l-53 155 -47 3 -47 3
-15 -48z"/>
<path d="M3630 4192 c0 -4 22 -42 50 -83 27 -40 50 -77 50 -81 0 -4 -22 -42
-50 -84 -27 -42 -50 -80 -50 -85 0 -5 20 -9 45 -9 43 0 46 2 76 50 17 28 32
50 33 50 2 0 17 -22 34 -50 30 -48 33 -50 77 -50 25 0 45 4 45 8 0 4 -22 42
-50 83 -27 40 -50 79 -50 84 0 6 23 44 50 84 28 41 50 79 50 83 0 4 -20 8 -45
8 -43 0 -47 -2 -73 -45 -15 -25 -32 -45 -38 -45 -6 0 -22 20 -35 45 -23 44
-25 45 -71 45 -27 0 -48 -4 -48 -8z"/>
<path d="M3990 4025 l0 -175 45 0 45 0 0 175 0 175 -45 0 -45 0 0 -175z"/>
<path d="M3402 1683 c-70 -7 -74 -22 -68 -222 l5 -171 -187 0 -187 1 3 176 c3
154 1 177 -14 194 -16 17 -33 19 -194 19 -123 0 -180 -4 -188 -12 -8 -8 -12
-66 -12 -195 0 -171 1 -183 20 -193 12 -6 86 -9 193 -8 l174 3 0 -182 c0 -135
3 -186 12 -197 11 -14 42 -16 197 -16 174 0 184 1 194 20 7 13 10 84 9 197
l-2 176 189 3 189 3 -3 -185 c-2 -132 0 -190 9 -200 16 -19 361 -21 377 -1 6
7 12 87 14 197 l3 185 173 -3 c98 -1 181 2 191 8 16 8 19 29 23 187 3 99 1
186 -4 196 -8 15 -28 17 -198 17 -177 0 -190 -1 -200 -19 -6 -12 -10 -93 -10
-194 l0 -174 -157 -2 c-87 -1 -167 -3 -178 -4 -19 -2 -20 5 -23 184 -2 148 -5
189 -17 199 -15 12 -252 22 -333 13z"/>
</g>
</svg>
